<?xml version="1.0" standalone="no"?>
<!DOCTYPE svg PUBLIC "-//W3C//DTD SVG 20010904//EN"
 "http://www.w3.org/TR/2001/REC-SVG-20010904/DTD/svg10.dtd">
<svg version="1.0" xmlns="http://www.w3.org/2000/svg"
 width="400.000000pt" height="400.000000pt" viewBox="0 0 400.000000 400.000000"
 preserveAspectRatio="xMidYMid meet">

<g transform="translate(0.000000,400.000000) scale(0.100000,-0.100000)"
fill="#000000" stroke="none">
<path d="M1400 3699 c-600 -66 -1080 -590 -1080 -1179 0 -455 264 -873 686
-1083 160 -80 327 -119 514 -119 155 0 247 16 386 68 51 19 96 34 101 34 4 0
41 -14 80 -30 289 -121 687 -90 978 76 557 317 773 1005 492 1569 -63 127
-125 213 -227 315 -302 303 -721 423 -1118 319 -77 -21 -169 -55 -186 -71 -6
-4 11 -8 38 -8 69 0 237 -36 326 -71 181 -70 379 -225 489 -384 280 -404 257
-941 -55 -1312 -202 -241 -496 -376 -819 -376 -131 0 -207 11 -330 50 -411
129 -704 491 -745 920 -55 585 380 1105 982 1171 l73 9 -49 21 c-161 73 -350
101 -536 81z"/>
<path d="M1863 2979 c-279 -88 -417 -414 -289 -684 83 -176 239 -276 431 -277
388 0 611 435 395 772 -109 171 -340 252 -537 189z"/>
<path d="M2730 838 c-74 -40 -84 -68 -88 -243 -5 -205 13 -258 97 -287 40 -13
176 -16 264 -4 l57 7 0 145 0 144 -100 0 -100 0 0 -35 c0 -35 0 -35 45 -35
l45 0 0 -85 0 -85 -55 0 c-106 0 -126 26 -133 172 -9 192 15 258 93 258 49 0
74 -15 91 -56 14 -32 17 -34 64 -34 47 0 50 1 50 26 0 41 -27 88 -63 109 -24
14 -56 20 -127 23 -85 3 -100 1 -140 -20z"/>
<path d="M940 580 l0 -271 53 3 52 3 5 210 5 209 19 -64 c10 -36 29 -99 42
-140 12 -41 32 -108 44 -148 l21 -73 47 3 46 3 50 207 c28 115 54 208 59 208
4 0 7 -94 7 -210 l0 -210 60 0 60 0 0 270 0 270 -89 0 c-77 0 -90 -3 -95 -17
-2 -10 -26 -96 -52 -190 -26 -95 -50 -173 -54 -173 -4 0 -14 37 -24 82 -10 45
-30 129 -45 187 l-28 106 -91 3 -92 3 0 -271z"/>
<path d="M1650 643 c0 -232 9 -269 67 -311 64 -46 180 -51 270 -12 30 13 47
30 62 59 19 37 21 58 21 256 l0 215 -60 0 -60 0 0 -210 c0 -259 -7 -280 -91
-280 -17 0 -39 5 -49 10 -40 21 -45 48 -50 265 l-5 210 -52 3 -53 3 0 -208z"/>
<path d="M2210 580 l0 -270 60 0 60 0 0 110 0 110 105 0 105 0 0 35 0 34 -102
3 -103 3 -3 82 -3 82 103 3 103 3 3 38 3 37 -165 0 -166 0 0 -270z"/>
</g>
</svg>
